<?xml version="1.0" encoding="UTF-8"?>
<svg xmlns="http://www.w3.org/2000/svg" width="512" height="512" viewBox="0 0 128 128"><path d="M123.25,99.065H123v-7a4.756,4.756,0,0,0-4.75-4.75h-.254v-7a4.756,4.756,0,0,0-4.75-4.75h-.254v-7a4.756,4.756,0,0,0-4.75-4.75h-.254v-7a4.756,4.756,0,0,0-4.75-4.75H90.443V26.184h1.322a3.755,3.755,0,0,0,3.75-3.75v-5a3.754,3.754,0,0,0-3.75-3.75H36.235a3.754,3.754,0,0,0-3.75,3.75v5a3.755,3.755,0,0,0,3.75,3.75h1.322V52.075H24.766a4.756,4.756,0,0,0-4.75,4.75v7h-.254a4.756,4.756,0,0,0-4.75,4.75v7h-.254a4.756,4.756,0,0,0-4.75,4.75v7H9.754A4.756,4.756,0,0,0,5,92.067v7H4.75A4.755,4.755,0,0,0,0,103.815v8.746a1.75,1.75,0,0,0,1.75,1.75h124.5a1.75,1.75,0,0,0,1.75-1.75v-8.746A4.755,4.755,0,0,0,123.25,99.065Zm-3.754-7v7H97.958l-2.81-8.248h23.1A1.252,1.252,0,0,1,119.5,92.067ZM77.8,75.57H50.2l2.81-8.248H74.993ZM49,79.07H79l2.81,8.246H46.194Zm21.985-23.5L73.8,63.822H54.2l2.811-8.251ZM57.5,52.071H49.057V34.183H57.5ZM45,90.816H83l2.81,8.249H42.191ZM70.5,52.071V34.183h8.443V52.071ZM114.492,80.32v7H93.956L91.145,79.07h22.1A1.251,1.251,0,0,1,114.492,80.32Zm-5-11.748v7H89.953l-2.81-8.248h21.1A1.252,1.252,0,0,1,109.488,68.572Zm-5-11.747v7H85.95l-2.81-8.247h20.094A1.252,1.252,0,0,1,104.484,56.825Zm-68.5-34.391v-5a.25.25,0,0,1,.25-.25h55.53a.25.25,0,0,1,.25.25v5a.251.251,0,0,1-.25.25H36.235A.251.251,0,0,1,35.985,22.434Zm50.958,3.75V52.071h-4.5V32.433a1.75,1.75,0,0,0-1.75-1.75H68.75A1.75,1.75,0,0,0,67,32.433V52.071H61V32.433a1.75,1.75,0,0,0-1.75-1.75H47.307a1.75,1.75,0,0,0-1.75,1.75V52.071h-4.5V26.184ZM23.516,56.825a1.252,1.252,0,0,1,1.25-1.25H44.86l-2.81,8.247H23.516Zm-5,11.747a1.252,1.252,0,0,1,1.25-1.25h21.1l-2.81,8.248H18.512Zm-5,11.748a1.251,1.251,0,0,1,1.25-1.25h22.1l-2.811,8.247H13.508Zm-5,11.747a1.251,1.251,0,0,1,1.25-1.25h23.1l-2.81,8.248H8.5Zm-5,11.748a1.251,1.251,0,0,1,1.25-1.25h24.1l-2.81,8.246H3.5ZM48.56,55.571h4.754L34.49,110.811H29.736ZM38.189,110.81l.873-2.563L41,102.565H87l2.809,8.245Zm55.321,0L74.686,55.571H79.44l18.824,55.24Zm30.99,0H101.961l-2.81-8.246h24.1a1.251,1.251,0,0,1,1.25,1.25Z"/></svg>
